<?xml version="1.0" standalone="no"?>
<!DOCTYPE svg PUBLIC "-//W3C//DTD SVG 20010904//EN"
 "http://www.w3.org/TR/2001/REC-SVG-20010904/DTD/svg10.dtd">
<svg version="1.0" xmlns="http://www.w3.org/2000/svg"
 width="1504.000000pt" height="1504.000000pt" viewBox="0 0 1504.000000 1504.000000"
 preserveAspectRatio="xMidYMid meet">
<metadata>
Created by potrace 1.11, written by Peter Selinger 2001-2013
</metadata>
<g transform="translate(0.000000,1504.000000) scale(0.100000,-0.100000)"
fill="#000000" stroke="none">
<path d="M2640 15032 c-76 -6 -244 -44 -327 -73 -359 -125 -635 -387 -775
-734 -32 -78 -42 -110 -62 -195 -2 -8 -7 -35 -11 -60 -5 -25 -10 -56 -13 -70
-9 -43 -10 -1351 -1 -1425 31 -256 117 -476 258 -660 116 -152 297 -300 465
-379 81 -39 230 -91 286 -100 19 -3 47 -8 62 -11 16 -3 40 -7 55 -10 51 -9
307 -17 483 -16 96 0 535 2 975 5 851 4 908 2 1038 -43 116 -40 194 -87 300
-181 41 -36 115 -136 147 -200 26 -52 63 -160 75 -219 16 -76 18 -287 17
-2091 0 -1075 -1 -3163 -1 -4640 -1 -1477 1 -2696 3 -2710 3 -14 7 -52 11 -85
3 -33 8 -67 10 -75 2 -8 6 -26 9 -40 23 -138 101 -323 193 -463 91 -137 265
-296 416 -381 80 -45 203 -92 313 -120 93 -23 117 -27 239 -44 68 -9 1289 -9
1395 0 93 9 171 20 285 44 36 7 123 33 150 44 311 129 516 308 656 573 69 133
107 256 146 472 4 22 7 2162 8 4755 0 3541 4 4722 12 4741 7 15 10 29 7 31 -6
7 42 152 67 201 119 234 345 388 624 425 48 7 1139 7 1805 0 289 -3 407 1 517
18 18 2 48 6 65 9 105 15 240 57 342 105 386 185 646 553 715 1015 5 33 10
366 10 740 1 757 0 781 -64 972 -81 242 -216 433 -420 594 -88 70 -116 87
-240 148 -116 57 -226 93 -356 117 -89 17 -379 18 -4974 19 -2684 0 -4896 -1
-4915 -3z"/>
</g>
</svg>
