<svg id="Logo" xmlns="http://www.w3.org/2000/svg" xmlns:xlink="http://www.w3.org/1999/xlink" viewBox="0 0 1018.85 358.18"><defs><style>.cls-1{fill:url(#Summer);}.cls-2{fill:url(#Summer-2);}.cls-3{fill:url(#Summer-3);}.cls-4{fill:url(#Summer-4);}</style><radialGradient id="Summer" cx="368.22" cy="550.58" r="133.54" gradientUnits="userSpaceOnUse"><stop offset="0" stop-color="#fff"/><stop offset="0.09" stop-color="#ffedd8"/><stop offset="0.21" stop-color="#ffd5a7"/><stop offset="0.33" stop-color="#ffc17d"/><stop offset="0.46" stop-color="#ffb05b"/><stop offset="0.59" stop-color="#ffa340"/><stop offset="0.72" stop-color="#ff9a2d"/><stop offset="0.86" stop-color="#ff9522"/><stop offset="1" stop-color="#ff931e"/></radialGradient><radialGradient id="Summer-2" cx="641.64" cy="509.09" r="150.65" xlink:href="#Summer"/><radialGradient id="Summer-3" cx="911.39" cy="550.58" r="133.54" xlink:href="#Summer"/><radialGradient id="Summer-4" cx="175.08" cy="509.16" r="158.13" xlink:href="#Summer"/></defs><title>todo</title><path class="cls-1" d="M368.22,417A133.54,133.54,0,1,0,501.75,550.58,133.54,133.54,0,0,0,368.22,417Zm0,162.3A46.81,46.81,0,1,1,415,532.54,46.81,46.81,0,0,1,368.22,579.34Z" transform="translate(-30.46 -330.17)"/><path d="M368.22,412.54c-57.54.3-109.79,36.66-129.7,90.73S235.77,620.36,280.28,657c44.82,36.85,109.76,41.92,159.48,11.69,49.31-30,75-88.79,63.78-145.35-11-55.61-57.37-100.27-113.42-109a147.14,147.14,0,0,0-21.91-1.76c-5.79,0-5.8,9,0,9,53.54,0.28,102.92,34.15,121.25,84.75C508,557.37,492,615.52,450.29,650.18,408.76,684.67,348,689,301.77,661.22S230.93,578,241.7,525c10.64-52.35,53.61-93.46,106.32-101.94a131.24,131.24,0,0,1,20.19-1.55C374,421.51,374,412.51,368.22,412.54Z" transform="translate(-30.46 -330.17)"/><path d="M368.22,574.84c-17.68-.26-33.93-11.21-39.86-28.08a42.33,42.33,0,1,1,39.86,28.08c-5.79.09-5.8,9.09,0,9a52,52,0,0,0,48.32-34.06c7.25-19.86.85-43.16-15.43-56.6-16.71-13.81-40.94-15.87-59.54-4.5A51.92,51.92,0,0,0,317.8,542c4.32,24.24,26.17,41.49,50.42,41.85C374,583.93,374,574.93,368.22,574.84Z" transform="translate(-30.46 -330.17)"/><path class="cls-2" d="M547.1,334.87a24.93,24.93,0,0,0-27.17,24.74l-0.78,298.82a24.91,24.91,0,0,0,27,24.89c119.24-10.11,212.74-81.64,217.78-166.65C769.27,426.46,673.54,346.13,547.1,334.87ZM701.85,510.72c-1.3,30.21-37.8,56.85-90.46,68.07a24.85,24.85,0,0,1-30-24.43l0.43-90.81A24.87,24.87,0,0,1,612,439.39C666.42,451.15,703.19,479.41,701.85,510.72Z" transform="translate(-30.46 -330.17)"/><path d="M547.1,330.37c-17.45-1.07-31.47,12.62-31.68,29.87-0.06,4.65,0,9.3,0,14l-0.18,68.57-0.46,177.81c0,12.59-.35,25.21-0.1,37.79a29.9,29.9,0,0,0,11.28,23.25c9.94,7.8,21.36,6.32,33.12,4.86A321.49,321.49,0,0,0,631,669.32c40.4-14.92,78.94-38.73,105.73-73,23.63-30.21,36.17-67.74,30.44-106.1s-29.27-72.16-58.51-96.83c-35.19-29.7-78.94-48.45-123.84-57.58a348.73,348.73,0,0,0-37.68-5.46c-5.77-.53-5.73,8.48,0,9,46.12,4.22,91.91,17.9,131.14,42.85,32.15,20.45,60.94,49.57,74,86,12.18,33.91,8.49,70.62-8.94,102-19.45,35-52.26,61.06-87.69,78.72a291.45,291.45,0,0,1-65,22.95A317.89,317.89,0,0,1,554.23,678c-5.39.59-11,1.61-16.31-.06a20.57,20.57,0,0,1-12-10.12c-2.61-5.05-2.26-10.36-2.25-15.8l0.06-21.7,0.43-164.22,0.2-76,0.06-22.87c0-3.67-.33-7.68.35-11.31,2-10.78,11.76-17.27,22.35-16.62C552.89,339.73,552.86,330.73,547.1,330.37Z" transform="translate(-30.46 -330.17)"/><path d="M697.35,510.72c-1.71,30.66-37.68,48.54-62.77,57.07-14.82,5-38.72,14.35-47.1-5.32-2.46-5.78-1.56-13.11-1.53-19.27l0.31-64.52c0-5-.09-10.1.07-15.13a20.68,20.68,0,0,1,12.58-18.71c8.62-3.57,18.43.22,26.86,2.67,18.62,5.41,37.46,13.38,52.27,26.19,10.94,9.47,19.76,22,19.31,37-0.18,5.79,8.83,5.79,9,0,1-34.43-34.8-56-62.78-66.74-10.47-4-21.79-7.84-32.93-9.35A29.6,29.6,0,0,0,587,441.92c-8.31,7.39-9.64,17.28-9.69,27.64L577,540c0,7.15-.94,15.29,1,22.27A29.59,29.59,0,0,0,593.66,581c9.64,4.55,19.16,2.33,29-.25,33.4-8.72,81.42-29.59,83.67-70C706.67,504.93,697.67,505,697.35,510.72Z" transform="translate(-30.46 -330.17)"/><path class="cls-3" d="M911.39,417a133.54,133.54,0,1,0,133.54,133.54A133.54,133.54,0,0,0,911.39,417Zm0,162.3a46.81,46.81,0,1,1,46.81-46.81A46.81,46.81,0,0,1,911.39,579.34Z" transform="translate(-30.46 -330.17)"/><path d="M911.39,412.54c-57.54.3-109.79,36.66-129.7,90.73S778.94,620.36,823.45,657c44.82,36.85,109.76,41.92,159.48,11.69,49.31-30,75-88.79,63.78-145.35-11-55.61-57.37-100.27-113.42-109a147.14,147.14,0,0,0-21.91-1.76c-5.79,0-5.8,9,0,9,53.54,0.28,102.92,34.15,121.25,84.75,18.5,51.08,2.56,109.23-39.18,143.89-41.53,34.49-102.34,38.82-148.52,11S774.1,578,784.87,525c10.64-52.35,53.61-93.46,106.32-101.94a131.24,131.24,0,0,1,20.19-1.55C917.18,421.51,917.19,412.51,911.39,412.54Z" transform="translate(-30.46 -330.17)"/><path d="M911.39,574.84c-17.68-.26-33.93-11.21-39.86-28.08a42.33,42.33,0,1,1,39.86,28.08c-5.79.09-5.8,9.09,0,9a52,52,0,0,0,48.32-34.06c7.25-19.86.85-43.16-15.43-56.6-16.71-13.81-40.94-15.87-59.54-4.5A51.92,51.92,0,0,0,861,542c4.32,24.24,26.17,41.49,50.42,41.85C917.18,583.93,917.18,574.93,911.39,574.84Z" transform="translate(-30.46 -330.17)"/><path class="cls-4" d="M315.08,359v29.06c0,13.38-11.19,24.22-25,24.22h-50c-13.81,0-25,10.84-25,24.22V659.32c0,13.38-11.19,24.22-25,24.22h-30c-13.81,0-25-10.84-25-24.22V436.5c0-13.38-11.19-24.22-25-24.22h-50c-13.81,0-25-10.84-25-24.22V359c0-13.38,11.19-24.22,25-24.22h230C303.88,334.77,315.08,345.61,315.08,359Z" transform="translate(-30.46 -330.17)"/><path d="M310.58,359c0,9,0,18.06,0,27.09-0.06,12.81-8.82,21.61-21.73,21.69-9.91.06-19.82,0-29.72,0-8.31,0-17.59-1-25.79.76a29.32,29.32,0,0,0-22.76,28.25c-0.08,3.41,0,6.83,0,10.23V652.9c0,3.46.3,7.2-.46,10.59a20.42,20.42,0,0,1-17,15.37c-3.95.54-8.17,0.18-12.14,0.18-9.57,0-23,2.2-31.58-2.91-12.38-7.35-9.77-22.89-9.77-35.11V453.09c0-13.2,1.72-27.39-9.11-37.35-8.32-7.65-18.26-8-28.77-8H68.08c-2.66,0-5.33.07-8,0-8.42-.23-16.26-4.93-19.31-13-1.55-4.09-1.2-8.53-1.2-12.82V364.3c0-4.57-.22-9.07,1.76-13.35,3.38-7.33,10.87-11.49,18.75-11.67,2.58-.06,5.16,0,7.74,0H187.56c33.85,0,67.72-.26,101.57,0,11.42,0.09,21.11,7.86,21.46,19.72,0.17,5.78,9.17,5.8,9,0-0.47-16.27-13.47-28.34-29.55-28.72-3-.07-6,0-8.92,0H88.64c-9.51,0-19.05-.22-28.56,0-16.19.37-29.17,12.67-29.5,29-0.19,9.35-.1,18.75,0,28.11a29.5,29.5,0,0,0,28.08,29.36c8.59,0.49,17.32,0,25.92,0s17-.22,25.5,0c11.94,0.3,20.43,9.25,20.5,21,0.23,36.53,0,73.08,0,109.61,0,36.75-.16,73.5,0,110.25,0,9.88,3.86,18.89,12,24.79,9.91,7.15,22.44,5.6,34,5.6,12.13,0,24.2.94,33.89-8,6.6-6.07,9.11-14.34,9.11-23V543.42c0-35.38-.33-70.78,0-106.15,0.11-11.74,9.11-20.23,20.73-20.49,9.41-.21,18.85,0,28.26,0,8.73,0,18.24,1,26.9-.5,15-2.63,24.06-15.54,24.11-30.19,0-9,0-18.06,0-27.09C319.58,353.2,310.58,353.19,310.58,359Z" transform="translate(-30.46 -330.17)"/></svg>