<svg id="Logo" xmlns="http://www.w3.org/2000/svg" xmlns:xlink="http://www.w3.org/1999/xlink" viewBox="0 0 292.14 360.98"><defs><style>.cls-1{fill:url(#Summer);}</style><radialGradient id="Summer" cx="175.08" cy="509.16" r="158.13" gradientUnits="userSpaceOnUse"><stop offset="0" stop-color="#fff"/><stop offset="0.09" stop-color="#ffedd8"/><stop offset="0.21" stop-color="#ffd5a7"/><stop offset="0.33" stop-color="#ffc17d"/><stop offset="0.46" stop-color="#ffb05b"/><stop offset="0.59" stop-color="#ffa340"/><stop offset="0.72" stop-color="#ff9a2d"/><stop offset="0.86" stop-color="#ff9522"/><stop offset="1" stop-color="#ff931e"/></radialGradient></defs><title>todo-fav</title><path class="cls-1" d="M315.08,359v29.06c0,13.38-11.19,24.22-25,24.22h-50c-13.81,0-25,10.84-25,24.22V659.32c0,13.38-11.19,24.22-25,24.22h-30c-13.81,0-25-10.84-25-24.22V436.5c0-13.38-11.19-24.22-25-24.22h-50c-13.81,0-25-10.84-25-24.22V359c0-13.38,11.19-24.22,25-24.22h230C303.88,334.77,315.08,345.61,315.08,359Z" transform="translate(-28.95 -328.67)"/><path d="M309.08,359c0,9,0,18.06,0,27.09,0,12-8.17,20.12-20.23,20.19-9.91.06-19.82,0-29.72,0-8.62,0-18.39-1.12-26.85,1a30.82,30.82,0,0,0-23.2,29.53c-0.07,3.41,0,6.83,0,10.23V653.08c0,3.49.31,7.26-.57,10.65a18.94,18.94,0,0,1-17,13.77c-3.65.26-7.38,0-11,0-9.51,0-23.18,2.32-31.48-3.41-10.52-7.27-7.91-22.29-7.91-33.4V452.27c0-13.86,1.45-28.39-10.54-38.45-8.86-7.43-19-7.55-29.8-7.55H67.53c-2.48,0-5,.05-7.45,0-8-.17-15.41-4.81-18.06-12.54-1.37-4-.94-8.47-0.94-12.64V364.3c0-4.56-.23-8.94,1.86-13.17,3.24-6.56,10-10.2,17.17-10.35,2.69-.06,5.39,0,8.08,0H188c33.7,0,67.41-.26,101.11,0,10.59,0.08,19.63,7.18,19.95,18.22,0.22,7.71,12.22,7.74,12,0-0.49-17.09-14.14-29.83-31.05-30.22-3-.07-5.92,0-8.87,0h-192c-9.69,0-19.41-.23-29.1,0-17,.41-30.59,13.27-31,30.39-0.23,9.38-.1,18.83,0,28.21a31,31,0,0,0,29.58,30.86c8.43,0.47,17,0,25.43,0,8.65,0,17.32-.19,26,0,11,0.24,19,8.48,19,19.36,0.25,36.26,0,72.52,0,108.78,0,37-.14,74.1,0,111.15,0,10.2,3.87,19.46,12.18,25.71,10.2,7.68,22.83,6.27,34.82,6.27,12.46,0,24.89,1,35-8,7.13-6.35,10-15.11,10-24.42V544.42c0-35.69-.3-71.4,0-107.08,0.09-10.91,8.38-18.86,19.23-19.06,9.41-.17,18.84,0,28.26,0,8.89,0,18.48,1,27.3-.55,15.62-2.71,25.16-16.4,25.21-31.64,0-9,0-18.06,0-27.09C321.08,351.27,309.08,351.26,309.08,359Z" transform="translate(-28.95 -328.67)"/></svg>